G04 EAGLE Gerber RS-274X export*
G75*
%MOMM*%
%FSLAX34Y34*%
%LPD*%
%INSoldermask Top*%
%IPPOS*%
%AMOC8*
5,1,8,0,0,1.08239X$1,22.5*%
G01*
%ADD10R,2.203200X2.703200*%
%ADD11R,2.363200X1.983200*%
%ADD12R,3.003200X1.403200*%
%ADD13R,3.003200X2.603200*%
%ADD14R,1.503200X1.703200*%
%ADD15R,1.703200X1.503200*%
%ADD16R,2.103200X2.603200*%
%ADD17R,3.603200X1.203200*%
%ADD18R,9.803200X7.003200*%
%ADD19R,1.503200X0.653200*%
%ADD20R,2.853200X6.603200*%
%ADD21R,2.903200X1.803200*%
%ADD22R,1.803200X2.903200*%
%ADD23R,2.403200X0.803200*%
%ADD24R,1.549400X0.889000*%
%ADD25R,1.397000X0.762000*%
%ADD26R,0.762000X1.397000*%
%ADD27C,1.727200*%
%ADD28R,2.303200X2.303200*%
%ADD29C,3.203200*%
%ADD30P,1.869504X8X202.500000*%
%ADD31C,1.117600*%
%ADD32C,0.914400*%


D10*
X122875Y415925D03*
X162875Y415925D03*
D11*
X171450Y449600D03*
X171450Y490300D03*
D12*
X130175Y486400D03*
X130175Y453400D03*
D13*
X222250Y425700D03*
X222250Y488700D03*
D14*
X380975Y161925D03*
X361975Y161925D03*
X380975Y184150D03*
X361975Y184150D03*
X380975Y206375D03*
X361975Y206375D03*
X380975Y228600D03*
X361975Y228600D03*
X428600Y228600D03*
X409600Y228600D03*
X428600Y184150D03*
X409600Y184150D03*
X428600Y161925D03*
X409600Y161925D03*
X380975Y139700D03*
X361975Y139700D03*
X409600Y139700D03*
X428600Y139700D03*
D15*
X320675Y492100D03*
X320675Y473100D03*
X342900Y473100D03*
X342900Y492100D03*
X374650Y492100D03*
X374650Y473100D03*
X293688Y492100D03*
X293688Y473100D03*
X271463Y247675D03*
X271463Y266675D03*
X292100Y247675D03*
X292100Y266675D03*
D14*
X400025Y260350D03*
X381025Y260350D03*
D16*
X316210Y255568D03*
X357210Y255568D03*
D17*
X266025Y47625D03*
X266025Y98425D03*
D18*
X165025Y73025D03*
D19*
X165175Y385000D03*
X165175Y378500D03*
X165175Y372000D03*
X165175Y365500D03*
X165175Y359000D03*
X165175Y352500D03*
X165175Y346000D03*
X165175Y339500D03*
X165175Y333000D03*
X165175Y326500D03*
X165175Y320000D03*
X165175Y313500D03*
X222175Y313500D03*
X222175Y320000D03*
X222175Y326500D03*
X222175Y333000D03*
X222175Y339500D03*
X222175Y346000D03*
X222175Y352500D03*
X222175Y359000D03*
X222175Y365500D03*
X222175Y372000D03*
X222175Y378500D03*
X222175Y385000D03*
D20*
X193675Y349250D03*
D15*
X187325Y425425D03*
X187325Y406425D03*
D14*
X225450Y400050D03*
X244450Y400050D03*
D21*
X263525Y490250D03*
X263525Y462250D03*
D14*
X276200Y28575D03*
X257200Y28575D03*
D22*
X320388Y144463D03*
X292388Y144463D03*
D23*
X357788Y34925D03*
X305788Y34925D03*
X357788Y22225D03*
X357788Y47625D03*
X357788Y60325D03*
X305788Y22225D03*
X305788Y47625D03*
X305788Y60325D03*
D14*
X234925Y47625D03*
X215925Y47625D03*
D24*
X382588Y60325D03*
X382588Y98425D03*
X382588Y73025D03*
X382588Y85725D03*
X481013Y60325D03*
X481013Y98425D03*
X481013Y73025D03*
X481013Y85725D03*
D25*
X266891Y432118D03*
X266891Y424244D03*
X266891Y416370D03*
X266891Y408496D03*
X266891Y400622D03*
X266891Y392748D03*
X266891Y384874D03*
X266891Y377000D03*
X266891Y369126D03*
X266891Y361252D03*
X266891Y353378D03*
X266891Y345504D03*
X266891Y337630D03*
X266891Y329756D03*
X266891Y321882D03*
X266891Y314008D03*
D26*
X285433Y295466D03*
X293307Y295466D03*
X301181Y295466D03*
X309055Y295466D03*
X316929Y295466D03*
X324803Y295466D03*
X332677Y295466D03*
X340551Y295466D03*
X348425Y295466D03*
X356299Y295466D03*
X364173Y295466D03*
X372047Y295466D03*
X379921Y295466D03*
X387795Y295466D03*
X395669Y295466D03*
X403543Y295466D03*
D25*
X422085Y314008D03*
X422085Y321882D03*
X422085Y329756D03*
X422085Y337630D03*
X422085Y345504D03*
X422085Y353378D03*
X422085Y361252D03*
X422085Y369126D03*
X422085Y377000D03*
X422085Y384874D03*
X422085Y392748D03*
X422085Y400622D03*
X422085Y408496D03*
X422085Y416370D03*
X422085Y424244D03*
X422085Y432118D03*
D26*
X403543Y450660D03*
X395669Y450660D03*
X387795Y450660D03*
X379921Y450660D03*
X372047Y450660D03*
X364173Y450660D03*
X356299Y450660D03*
X348425Y450660D03*
X340551Y450660D03*
X332677Y450660D03*
X324803Y450660D03*
X316929Y450660D03*
X309055Y450660D03*
X301181Y450660D03*
X293307Y450660D03*
X285433Y450660D03*
D14*
X141263Y314325D03*
X122263Y314325D03*
D15*
X120650Y292075D03*
X120650Y273075D03*
X142875Y292075D03*
X142875Y273075D03*
X409575Y491100D03*
X409575Y474100D03*
X431800Y473100D03*
X431800Y492100D03*
D14*
X276200Y73025D03*
X257200Y73025D03*
X428600Y206375D03*
X409600Y206375D03*
D15*
X258763Y177825D03*
X258763Y196825D03*
X236538Y196825D03*
X236538Y177825D03*
D14*
X257150Y157163D03*
X238150Y157163D03*
D15*
X309563Y177825D03*
X309563Y196825D03*
X287338Y177825D03*
X287338Y196825D03*
D27*
X467043Y241300D02*
X482283Y241300D01*
X482283Y266700D02*
X467043Y266700D01*
X467043Y292100D02*
X482283Y292100D01*
X482283Y317500D02*
X467043Y317500D01*
X467043Y342900D02*
X482283Y342900D01*
D23*
X357788Y92075D03*
X305788Y92075D03*
X357788Y79375D03*
X357788Y104775D03*
X357788Y117475D03*
X305788Y79375D03*
X305788Y104775D03*
X305788Y117475D03*
D14*
X276200Y117475D03*
X257200Y117475D03*
X484163Y139700D03*
X465163Y139700D03*
D28*
X84650Y491350D03*
X84650Y449350D03*
X84650Y407350D03*
X84650Y365350D03*
X84650Y323350D03*
X84650Y281350D03*
X84650Y239350D03*
X84650Y197350D03*
X84650Y155350D03*
X84650Y113350D03*
X84650Y71350D03*
X29650Y491350D03*
X29650Y449350D03*
X29650Y407350D03*
X29650Y365350D03*
X29650Y323350D03*
X29650Y281350D03*
X29650Y239350D03*
X29650Y197350D03*
X29650Y155350D03*
X29650Y113350D03*
X84650Y29350D03*
X29650Y71350D03*
X29650Y29350D03*
D29*
X34250Y538350D03*
X34250Y-17650D03*
D27*
X467043Y215900D02*
X482283Y215900D01*
X482283Y190500D02*
X467043Y190500D01*
X467043Y165100D02*
X482283Y165100D01*
X482283Y444500D02*
X467043Y444500D01*
X467043Y419100D02*
X482283Y419100D01*
X482283Y393700D02*
X467043Y393700D01*
X467043Y368300D02*
X482283Y368300D01*
D30*
X238125Y288925D03*
X238125Y263525D03*
X212725Y288925D03*
X212725Y263525D03*
X187325Y288925D03*
X187325Y263525D03*
D31*
X141288Y203200D03*
X219075Y169863D03*
X149225Y381000D03*
X187325Y374650D03*
X200025Y374650D03*
X187325Y361950D03*
X200025Y361950D03*
X200025Y349250D03*
X187325Y349250D03*
X187325Y336550D03*
X200025Y336550D03*
X200025Y323850D03*
X187325Y323850D03*
D32*
X327025Y390525D03*
X396875Y425450D03*
X290513Y434975D03*
X468313Y125413D03*
X414338Y50800D03*
X417513Y82550D03*
X225425Y115888D03*
X268288Y141288D03*
X309563Y165100D03*
X311150Y234950D03*
X323850Y282575D03*
X125413Y146050D03*
X141288Y130175D03*
X112713Y152400D03*
X325438Y171450D03*
X157163Y15875D03*
X176213Y15875D03*
X195263Y15875D03*
X214313Y15875D03*
X233363Y15875D03*
X385763Y47625D03*
X301625Y333375D03*
X396875Y411163D03*
X269875Y444500D03*
X358775Y482600D03*
X379413Y125413D03*
X292100Y165100D03*
X277813Y150813D03*
X341313Y171450D03*
X333375Y184150D03*
X458788Y50800D03*
X209550Y138113D03*
X219075Y128588D03*
X200025Y128588D03*
X395288Y106363D03*
X115888Y171450D03*
X315913Y276225D03*
X323850Y234950D03*
X138113Y15875D03*
X141288Y508000D03*
X160338Y508000D03*
X179388Y508000D03*
X198438Y508000D03*
X217488Y508000D03*
X236538Y508000D03*
X255588Y508000D03*
X122238Y508000D03*
X293688Y508000D03*
X312738Y508000D03*
X331788Y508000D03*
X350838Y508000D03*
X369888Y508000D03*
X388938Y508000D03*
X407988Y508000D03*
X274638Y508000D03*
X427038Y508000D03*
X446088Y508000D03*
X465138Y508000D03*
X198438Y488950D03*
X198438Y469900D03*
X484188Y508000D03*
X446088Y488950D03*
X465138Y488950D03*
X484188Y488950D03*
X465138Y469900D03*
X296863Y396875D03*
X292100Y342900D03*
X292100Y323850D03*
X338138Y120650D03*
X347663Y128588D03*
X334963Y107950D03*
X334963Y50800D03*
X334963Y34925D03*
X301625Y317500D03*
X290513Y419100D03*
X290513Y406400D03*
X458788Y34925D03*
X477838Y34925D03*
X487363Y47625D03*
X415925Y263525D03*
X425450Y263525D03*
X461963Y125413D03*
X433388Y125413D03*
X431800Y95250D03*
X484188Y469900D03*
X263525Y292100D03*
X314325Y327025D03*
X358775Y425450D03*
X241300Y244475D03*
X352425Y438150D03*
X395288Y228600D03*
X307975Y438150D03*
X395288Y161925D03*
X307975Y409575D03*
X395288Y184150D03*
X307975Y419100D03*
X342900Y438150D03*
X395288Y242888D03*
X295275Y355600D03*
X285750Y355600D03*
X241300Y368300D03*
X395288Y315913D03*
X312738Y309563D03*
X395288Y206375D03*
X307975Y428625D03*
X447675Y311150D03*
X439738Y52388D03*
X246063Y320675D03*
X236538Y323850D03*
X249238Y344488D03*
X322263Y34925D03*
X393700Y469900D03*
X452438Y274638D03*
D31*
X254000Y98425D03*
X266700Y98425D03*
X277813Y98425D03*
D32*
X307975Y342900D03*
X393700Y390525D03*
X439738Y315913D03*
X406400Y66675D03*
X198438Y206375D03*
X114300Y203200D03*
X215900Y153988D03*
X209550Y161925D03*
X207963Y206375D03*
X206375Y187325D03*
X252413Y414338D03*
X155575Y195263D03*
X193675Y169863D03*
X334963Y327025D03*
X273050Y198438D03*
X338138Y207963D03*
X185738Y196850D03*
X327025Y333375D03*
X341313Y198438D03*
X271463Y285750D03*
X357188Y461963D03*
X434975Y307975D03*
X406400Y92075D03*
X428625Y301625D03*
X390525Y117475D03*
D31*
X336550Y153988D03*
M02*
