G04 EAGLE Gerber RS-274X export*
G75*
%MOMM*%
%FSLAX34Y34*%
%LPD*%
%INSoldermask Bottom*%
%IPPOS*%
%AMOC8*
5,1,8,0,0,1.08239X$1,22.5*%
G01*
%ADD10R,1.503200X1.703200*%
%ADD11R,1.703200X1.503200*%
%ADD12R,2.403200X0.803200*%
%ADD13R,0.803200X2.403200*%
%ADD14R,1.473200X0.762000*%
%ADD15R,0.762000X1.473200*%
%ADD16R,0.903200X1.203200*%
%ADD17C,1.727200*%
%ADD18R,6.403200X5.603200*%
%ADD19R,1.803200X1.203200*%
%ADD20R,1.422400X2.438400*%
%ADD21R,3.803200X2.403200*%
%ADD22R,2.303200X2.303200*%
%ADD23C,3.203200*%
%ADD24P,1.869504X8X202.500000*%
%ADD25C,1.117600*%
%ADD26C,0.914400*%


D10*
X428600Y228600D03*
X409600Y228600D03*
X428600Y206375D03*
X409600Y206375D03*
X428600Y184150D03*
X409600Y184150D03*
X428600Y161925D03*
X409600Y161925D03*
X363563Y249238D03*
X382563Y249238D03*
X427013Y249238D03*
X408013Y249238D03*
X382563Y269875D03*
X363563Y269875D03*
D11*
X228600Y339750D03*
X228600Y358750D03*
D12*
X324838Y412750D03*
X376838Y412750D03*
X324838Y400050D03*
X324838Y425450D03*
X324838Y438150D03*
X376838Y400050D03*
X376838Y425450D03*
X376838Y438150D03*
D10*
X473050Y111125D03*
X454050Y111125D03*
X466700Y88900D03*
X447700Y88900D03*
X406425Y469900D03*
X425425Y469900D03*
X279425Y376238D03*
X298425Y376238D03*
X425425Y347663D03*
X406425Y347663D03*
X406425Y368300D03*
X425425Y368300D03*
D13*
X415925Y445100D03*
X415925Y393100D03*
X403225Y445100D03*
X428625Y445100D03*
X441325Y445100D03*
X403225Y393100D03*
X428625Y393100D03*
X441325Y393100D03*
D10*
G36*
X155719Y153475D02*
X166348Y164104D01*
X178391Y152061D01*
X167762Y141432D01*
X155719Y153475D01*
G37*
G36*
X142284Y140039D02*
X152913Y150668D01*
X164956Y138625D01*
X154327Y127996D01*
X142284Y140039D01*
G37*
G36*
X247506Y127513D02*
X236877Y116884D01*
X224834Y128927D01*
X235463Y139556D01*
X247506Y127513D01*
G37*
G36*
X260941Y140948D02*
X250312Y130319D01*
X238269Y142362D01*
X248898Y152991D01*
X260941Y140948D01*
G37*
G36*
X268144Y243400D02*
X257515Y232771D01*
X245472Y244814D01*
X256101Y255443D01*
X268144Y243400D01*
G37*
G36*
X281579Y256836D02*
X270950Y246207D01*
X258907Y258250D01*
X269536Y268879D01*
X281579Y256836D01*
G37*
G36*
X122751Y182707D02*
X112122Y193336D01*
X124165Y205379D01*
X134794Y194750D01*
X122751Y182707D01*
G37*
G36*
X136186Y169271D02*
X125557Y179900D01*
X137600Y191943D01*
X148229Y181314D01*
X136186Y169271D01*
G37*
G36*
X180831Y124338D02*
X170202Y113709D01*
X158159Y125752D01*
X168788Y136381D01*
X180831Y124338D01*
G37*
G36*
X194266Y137773D02*
X183637Y127144D01*
X171594Y139187D01*
X182223Y149816D01*
X194266Y137773D01*
G37*
G36*
X151887Y231631D02*
X162516Y221002D01*
X150473Y208959D01*
X139844Y219588D01*
X151887Y231631D01*
G37*
G36*
X138452Y245066D02*
X149081Y234437D01*
X137038Y222394D01*
X126409Y233023D01*
X138452Y245066D01*
G37*
G36*
X167762Y247506D02*
X178391Y236877D01*
X166348Y224834D01*
X155719Y235463D01*
X167762Y247506D01*
G37*
G36*
X154327Y260941D02*
X164956Y250312D01*
X152913Y238269D01*
X142284Y248898D01*
X154327Y260941D01*
G37*
G36*
X270019Y174112D02*
X280648Y184741D01*
X292691Y172698D01*
X282062Y162069D01*
X270019Y174112D01*
G37*
G36*
X256584Y160677D02*
X267213Y171306D01*
X279256Y159263D01*
X268627Y148634D01*
X256584Y160677D01*
G37*
G36*
X298594Y202687D02*
X309223Y213316D01*
X321266Y201273D01*
X310637Y190644D01*
X298594Y202687D01*
G37*
G36*
X285159Y189252D02*
X295788Y199881D01*
X307831Y187838D01*
X297202Y177209D01*
X285159Y189252D01*
G37*
G36*
X298306Y210063D02*
X287677Y199434D01*
X275634Y211477D01*
X286263Y222106D01*
X298306Y210063D01*
G37*
G36*
X311741Y223498D02*
X301112Y212869D01*
X289069Y224912D01*
X299698Y235541D01*
X311741Y223498D01*
G37*
G36*
X282431Y225938D02*
X271802Y215309D01*
X259759Y227352D01*
X270388Y237981D01*
X282431Y225938D01*
G37*
G36*
X295866Y239373D02*
X285237Y228744D01*
X273194Y240787D01*
X283823Y251416D01*
X295866Y239373D01*
G37*
D14*
G36*
X210073Y146037D02*
X199657Y135621D01*
X194269Y141009D01*
X204685Y151425D01*
X210073Y146037D01*
G37*
G36*
X204416Y151694D02*
X194000Y141278D01*
X188612Y146666D01*
X199028Y157082D01*
X204416Y151694D01*
G37*
G36*
X198759Y157350D02*
X188343Y146934D01*
X182955Y152322D01*
X193371Y162738D01*
X198759Y157350D01*
G37*
G36*
X193102Y163007D02*
X182686Y152591D01*
X177298Y157979D01*
X187714Y168395D01*
X193102Y163007D01*
G37*
G36*
X187445Y168664D02*
X177029Y158248D01*
X171641Y163636D01*
X182057Y174052D01*
X187445Y168664D01*
G37*
G36*
X181788Y174321D02*
X171372Y163905D01*
X165984Y169293D01*
X176400Y179709D01*
X181788Y174321D01*
G37*
G36*
X176132Y179978D02*
X165716Y169562D01*
X160328Y174950D01*
X170744Y185366D01*
X176132Y179978D01*
G37*
G36*
X170475Y185635D02*
X160059Y175219D01*
X154671Y180607D01*
X165087Y191023D01*
X170475Y185635D01*
G37*
D15*
G36*
X170475Y201715D02*
X165087Y196327D01*
X154671Y206743D01*
X160059Y212131D01*
X170475Y201715D01*
G37*
G36*
X176132Y207372D02*
X170744Y201984D01*
X160328Y212400D01*
X165716Y217788D01*
X176132Y207372D01*
G37*
G36*
X181788Y213029D02*
X176400Y207641D01*
X165984Y218057D01*
X171372Y223445D01*
X181788Y213029D01*
G37*
G36*
X187445Y218686D02*
X182057Y213298D01*
X171641Y223714D01*
X177029Y229102D01*
X187445Y218686D01*
G37*
G36*
X193102Y224343D02*
X187714Y218955D01*
X177298Y229371D01*
X182686Y234759D01*
X193102Y224343D01*
G37*
G36*
X198759Y230000D02*
X193371Y224612D01*
X182955Y235028D01*
X188343Y240416D01*
X198759Y230000D01*
G37*
G36*
X204416Y235656D02*
X199028Y230268D01*
X188612Y240684D01*
X194000Y246072D01*
X204416Y235656D01*
G37*
G36*
X210073Y241313D02*
X204685Y235925D01*
X194269Y246341D01*
X199657Y251729D01*
X210073Y241313D01*
G37*
D14*
G36*
X231181Y246341D02*
X220765Y235925D01*
X215377Y241313D01*
X225793Y251729D01*
X231181Y246341D01*
G37*
G36*
X236838Y240684D02*
X226422Y230268D01*
X221034Y235656D01*
X231450Y246072D01*
X236838Y240684D01*
G37*
G36*
X242495Y235028D02*
X232079Y224612D01*
X226691Y230000D01*
X237107Y240416D01*
X242495Y235028D01*
G37*
G36*
X248152Y229371D02*
X237736Y218955D01*
X232348Y224343D01*
X242764Y234759D01*
X248152Y229371D01*
G37*
G36*
X253809Y223714D02*
X243393Y213298D01*
X238005Y218686D01*
X248421Y229102D01*
X253809Y223714D01*
G37*
G36*
X259466Y218057D02*
X249050Y207641D01*
X243662Y213029D01*
X254078Y223445D01*
X259466Y218057D01*
G37*
G36*
X265122Y212400D02*
X254706Y201984D01*
X249318Y207372D01*
X259734Y217788D01*
X265122Y212400D01*
G37*
G36*
X270779Y206743D02*
X260363Y196327D01*
X254975Y201715D01*
X265391Y212131D01*
X270779Y206743D01*
G37*
D15*
G36*
X270779Y180607D02*
X265391Y175219D01*
X254975Y185635D01*
X260363Y191023D01*
X270779Y180607D01*
G37*
G36*
X265122Y174950D02*
X259734Y169562D01*
X249318Y179978D01*
X254706Y185366D01*
X265122Y174950D01*
G37*
G36*
X259466Y169293D02*
X254078Y163905D01*
X243662Y174321D01*
X249050Y179709D01*
X259466Y169293D01*
G37*
G36*
X253809Y163636D02*
X248421Y158248D01*
X238005Y168664D01*
X243393Y174052D01*
X253809Y163636D01*
G37*
G36*
X248152Y157979D02*
X242764Y152591D01*
X232348Y163007D01*
X237736Y168395D01*
X248152Y157979D01*
G37*
G36*
X242495Y152322D02*
X237107Y146934D01*
X226691Y157350D01*
X232079Y162738D01*
X242495Y152322D01*
G37*
G36*
X236838Y146666D02*
X231450Y141278D01*
X221034Y151694D01*
X226422Y157082D01*
X236838Y146666D01*
G37*
G36*
X231181Y141009D02*
X225793Y135621D01*
X215377Y146037D01*
X220765Y151425D01*
X231181Y141009D01*
G37*
D11*
X252413Y446063D03*
X252413Y427063D03*
X130175Y366688D03*
X130175Y347688D03*
X231775Y427063D03*
X231775Y446063D03*
D16*
X336550Y480900D03*
X327050Y458900D03*
X346050Y458900D03*
D11*
X374650Y454050D03*
X374650Y473050D03*
D10*
G36*
X150669Y152913D02*
X140040Y142284D01*
X127997Y154327D01*
X138626Y164956D01*
X150669Y152913D01*
G37*
G36*
X164104Y166348D02*
X153475Y155719D01*
X141432Y167762D01*
X152061Y178391D01*
X164104Y166348D01*
G37*
D17*
X467043Y241300D02*
X482283Y241300D01*
X482283Y266700D02*
X467043Y266700D01*
X467043Y292100D02*
X482283Y292100D01*
X482283Y317500D02*
X467043Y317500D01*
X467043Y342900D02*
X482283Y342900D01*
D18*
X136925Y422275D03*
D19*
X209925Y445075D03*
X209925Y399475D03*
D10*
X276200Y28575D03*
X257200Y28575D03*
X409600Y111125D03*
X428600Y111125D03*
X409600Y139700D03*
X428600Y139700D03*
D20*
G36*
X319881Y114688D02*
X309824Y104631D01*
X292583Y121872D01*
X302640Y131929D01*
X319881Y114688D01*
G37*
G36*
X336225Y131032D02*
X326168Y120975D01*
X308927Y138216D01*
X318984Y148273D01*
X336225Y131032D01*
G37*
G36*
X352569Y147376D02*
X342512Y137319D01*
X325271Y154560D01*
X335328Y164617D01*
X352569Y147376D01*
G37*
D21*
G36*
X388343Y95748D02*
X361452Y68857D01*
X344459Y85850D01*
X371350Y112741D01*
X388343Y95748D01*
G37*
D10*
G36*
X292244Y151887D02*
X302873Y162516D01*
X314916Y150473D01*
X304287Y139844D01*
X292244Y151887D01*
G37*
G36*
X278809Y138452D02*
X289438Y149081D01*
X301481Y137038D01*
X290852Y126409D01*
X278809Y138452D01*
G37*
D22*
X84650Y491350D03*
X84650Y449350D03*
X84650Y407350D03*
X84650Y365350D03*
X84650Y323350D03*
X84650Y281350D03*
X84650Y239350D03*
X84650Y197350D03*
X84650Y155350D03*
X84650Y113350D03*
X84650Y71350D03*
X29650Y491350D03*
X29650Y449350D03*
X29650Y407350D03*
X29650Y365350D03*
X29650Y323350D03*
X29650Y281350D03*
X29650Y239350D03*
X29650Y197350D03*
X29650Y155350D03*
X29650Y113350D03*
X84650Y29350D03*
X29650Y71350D03*
X29650Y29350D03*
D23*
X34250Y538350D03*
X34250Y-17650D03*
D17*
X467043Y215900D02*
X482283Y215900D01*
X482283Y190500D02*
X467043Y190500D01*
X467043Y165100D02*
X482283Y165100D01*
D10*
G36*
X112857Y128075D02*
X123486Y138704D01*
X135529Y126661D01*
X124900Y116032D01*
X112857Y128075D01*
G37*
G36*
X99422Y114639D02*
X110051Y125268D01*
X122094Y113225D01*
X111465Y102596D01*
X99422Y114639D01*
G37*
D17*
X467043Y444500D02*
X482283Y444500D01*
X482283Y419100D02*
X467043Y419100D01*
X467043Y393700D02*
X482283Y393700D01*
X482283Y368300D02*
X467043Y368300D01*
D12*
X378425Y368300D03*
X326425Y368300D03*
X378425Y381000D03*
X378425Y355600D03*
X378425Y342900D03*
X326425Y381000D03*
X326425Y355600D03*
X326425Y342900D03*
D11*
X377825Y301650D03*
X377825Y320650D03*
D24*
X238125Y288925D03*
X238125Y263525D03*
X212725Y288925D03*
X212725Y263525D03*
X187325Y288925D03*
X187325Y263525D03*
D25*
X141288Y203200D03*
X219075Y169863D03*
X149225Y381000D03*
X187325Y374650D03*
X200025Y374650D03*
X187325Y361950D03*
X200025Y361950D03*
X200025Y349250D03*
X187325Y349250D03*
X187325Y336550D03*
X200025Y336550D03*
X200025Y323850D03*
X187325Y323850D03*
D26*
X327025Y390525D03*
X396875Y425450D03*
X290513Y434975D03*
X468313Y125413D03*
X414338Y50800D03*
X417513Y82550D03*
X225425Y115888D03*
X268288Y141288D03*
X309563Y165100D03*
X311150Y234950D03*
X323850Y282575D03*
X125413Y146050D03*
X141288Y130175D03*
X112713Y152400D03*
X325438Y171450D03*
X157163Y15875D03*
X176213Y15875D03*
X195263Y15875D03*
X214313Y15875D03*
X233363Y15875D03*
X385763Y47625D03*
X301625Y333375D03*
X396875Y411163D03*
X269875Y444500D03*
X358775Y482600D03*
X379413Y125413D03*
X292100Y165100D03*
X277813Y150813D03*
X341313Y171450D03*
X333375Y184150D03*
X458788Y50800D03*
X209550Y138113D03*
X219075Y128588D03*
X200025Y128588D03*
X395288Y106363D03*
X115888Y171450D03*
X315913Y276225D03*
X323850Y234950D03*
X138113Y15875D03*
X141288Y508000D03*
X160338Y508000D03*
X179388Y508000D03*
X198438Y508000D03*
X217488Y508000D03*
X236538Y508000D03*
X255588Y508000D03*
X122238Y508000D03*
X293688Y508000D03*
X312738Y508000D03*
X331788Y508000D03*
X350838Y508000D03*
X369888Y508000D03*
X388938Y508000D03*
X407988Y508000D03*
X274638Y508000D03*
X427038Y508000D03*
X446088Y508000D03*
X465138Y508000D03*
X198438Y488950D03*
X198438Y469900D03*
X484188Y508000D03*
X446088Y488950D03*
X465138Y488950D03*
X484188Y488950D03*
X465138Y469900D03*
X296863Y396875D03*
X292100Y342900D03*
X292100Y323850D03*
X338138Y120650D03*
X347663Y128588D03*
X334963Y107950D03*
X334963Y50800D03*
X334963Y34925D03*
X301625Y317500D03*
X290513Y419100D03*
X290513Y406400D03*
X458788Y34925D03*
X477838Y34925D03*
X487363Y47625D03*
X415925Y263525D03*
X425450Y263525D03*
X461963Y125413D03*
X433388Y125413D03*
X431800Y95250D03*
X484188Y469900D03*
X263525Y292100D03*
X314325Y327025D03*
X358775Y425450D03*
X241300Y244475D03*
X352425Y438150D03*
X395288Y228600D03*
X307975Y438150D03*
X395288Y161925D03*
X307975Y409575D03*
X395288Y184150D03*
X307975Y419100D03*
X342900Y438150D03*
X395288Y242888D03*
X295275Y355600D03*
X285750Y355600D03*
X241300Y368300D03*
X395288Y315913D03*
X312738Y309563D03*
X395288Y206375D03*
X307975Y428625D03*
X447675Y311150D03*
X439738Y52388D03*
X246063Y320675D03*
X236538Y323850D03*
X249238Y344488D03*
X322263Y34925D03*
X393700Y469900D03*
X452438Y274638D03*
D25*
X254000Y98425D03*
X266700Y98425D03*
X277813Y98425D03*
D26*
X307975Y342900D03*
X393700Y390525D03*
X439738Y315913D03*
X406400Y66675D03*
X198438Y206375D03*
X114300Y203200D03*
X215900Y153988D03*
X209550Y161925D03*
X207963Y206375D03*
X206375Y187325D03*
X252413Y414338D03*
X155575Y195263D03*
X193675Y169863D03*
X334963Y327025D03*
X273050Y198438D03*
X338138Y207963D03*
X185738Y196850D03*
X327025Y333375D03*
X341313Y198438D03*
X271463Y285750D03*
X357188Y461963D03*
X434975Y307975D03*
X406400Y92075D03*
X428625Y301625D03*
X390525Y117475D03*
D25*
X336550Y153988D03*
M02*
